<svg preserveAspectRatio="none" overflow="visible" style="display: block;" width="90" height="90.0009" viewBox="0 0 90 90.0009" fill="none" xmlns="http://www.w3.org/2000/svg">
<g id="Frame 427321126">
<path id="Union" d="M22.0811 1.46135C37.3105 -0.487118 52.6895 -0.487118 67.9189 1.46135C70.8497 1.83633 72.9998 4.36315 73 7.3178V22.0004C73.5521 22.0004 73.9998 22.4483 74 23.0004V31.0004C74 31.5527 73.5523 32.0004 73 32.0004V58.727L71.5264 71.3451V82.7143L71.5195 83.0102C71.372 86.0455 68.9627 88.5131 65.8984 88.7035L45 90.0004L24.1016 88.7035C20.9385 88.507 18.4736 85.8835 18.4736 82.7143V71.3451L17 58.727V7.3178C17.0002 4.36315 19.1503 1.83633 22.0811 1.46135ZM67.7285 2.94963C52.6255 1.01734 37.3745 1.01734 22.2715 2.94963C20.1155 3.22548 18.5002 5.09139 18.5 7.3178V58.6362L19.9639 71.1713L19.9736 71.2573V82.7143C19.9736 85.0913 21.8229 87.0592 24.1953 87.2065L45 88.4975L65.8047 87.2065C68.1771 87.0592 70.0264 85.0913 70.0264 82.7143V71.2573L70.0361 71.1713L71.5 58.6362V7.3178C71.4998 5.09139 69.8845 3.22548 67.7285 2.94963ZM39.8857 85.0004H39L39.5342 84.3061H40.4062L39.8857 85.0004ZM41.5049 85.0004H40.1064L40.6279 84.3061H42.0264L41.5049 85.0004ZM45.0664 85.0004H41.7266L42.2471 84.3061H45.5869L45.0664 85.0004ZM48.6514 81.8588L46.2881 85.0004H45.3115L47.6484 81.9125L46.7451 80.0004H47.8037L48.6514 81.8588ZM47.4922 84.4574H47.1846L47.165 84.5932L47.4658 84.5942L47.4443 84.7387H47.1455L47.1279 84.8539H47.4336L47.4111 85.0004H46.9561L47.0596 84.3061H47.5146L47.4922 84.4574ZM47.8682 84.4965L48.0186 84.3061H48.2041L47.9395 84.6449L48.1123 85.0004H47.9229L47.8232 84.7953L47.6621 85.0004H47.4746L47.752 84.6469L47.5869 84.3061H47.7754L47.8682 84.4965ZM48.5664 84.3071C48.5997 84.3086 48.6302 84.3154 48.6572 84.3266C48.6843 84.3378 48.7069 84.354 48.7246 84.3754C48.7422 84.3968 48.7545 84.4235 48.7617 84.4545C48.769 84.4855 48.7697 84.522 48.7637 84.5629C48.7574 84.6039 48.7461 84.6403 48.7295 84.6713C48.7129 84.7022 48.6928 84.7285 48.6689 84.7494C48.645 84.7704 48.6173 84.7861 48.5869 84.7973C48.5568 84.8084 48.5248 84.8143 48.4912 84.8158C48.4774 84.8166 48.4629 84.8178 48.4482 84.8178H48.3613L48.334 85.0004H48.1875L48.291 84.3061H48.5234C48.5376 84.3061 48.5522 84.3063 48.5664 84.3071ZM49.1553 84.3071C49.1883 84.3086 49.2182 84.3155 49.2451 84.3266C49.2722 84.3378 49.2947 84.354 49.3125 84.3754C49.3301 84.3968 49.3424 84.4234 49.3496 84.4545C49.3569 84.4855 49.3576 84.5219 49.3516 84.5629C49.3429 84.6212 49.3243 84.669 49.2959 84.7065C49.2673 84.744 49.2326 84.7727 49.1914 84.7914L49.3027 85.0004H49.1338L49.0381 84.8178H48.9502L48.9229 85.0004H48.7754L48.8789 84.3061H49.1123C49.1265 84.3061 49.1411 84.3063 49.1553 84.3071ZM49.9092 84.4574H49.6016L49.5811 84.5932L49.8828 84.5942L49.8613 84.7387H49.5615L49.5439 84.8539H49.8496L49.8281 85.0004H49.373L49.4766 84.3061H49.9316L49.9092 84.4574ZM50.3232 84.3139C50.3445 84.3188 50.364 84.3254 50.3809 84.3334C50.3976 84.3414 50.4128 84.3499 50.4258 84.3588C50.4385 84.3678 50.4487 84.376 50.4561 84.3842L50.3652 84.4926C50.3509 84.4816 50.3323 84.4717 50.3096 84.4623C50.2866 84.4529 50.2627 84.4472 50.2383 84.4457C50.2087 84.4436 50.1865 84.4483 50.1719 84.4594C50.1573 84.4704 50.1488 84.4816 50.1465 84.4926C50.1449 84.503 50.1461 84.5123 50.1504 84.5199C50.1546 84.5275 50.1606 84.5345 50.1689 84.5405C50.1774 84.5465 50.1881 84.5518 50.1992 84.5571C50.2104 84.5623 50.2212 84.5681 50.2324 84.5737L50.2451 84.5785C50.2685 84.5895 50.2913 84.6017 50.3135 84.6147C50.3358 84.6277 50.3554 84.6438 50.3721 84.6615C50.3887 84.6791 50.4015 84.6997 50.4092 84.7231C50.417 84.7468 50.4185 84.7747 50.4131 84.8061C50.4088 84.8297 50.3995 84.8531 50.3867 84.8764C50.3739 84.8996 50.3565 84.9206 50.335 84.9389C50.3132 84.9572 50.2869 84.9724 50.2568 84.9838C50.2269 84.9952 50.1924 85.0004 50.1533 85.0004C50.0972 85.0011 50.0497 84.9917 50.0117 84.9721C49.9738 84.9523 49.9409 84.9277 49.9141 84.8979L50.0049 84.7875C50.0288 84.8088 50.0536 84.8247 50.0791 84.8354C50.1048 84.8461 50.134 84.8524 50.166 84.853C50.1773 84.853 50.188 84.8514 50.1982 84.849C50.2085 84.8467 50.2181 84.8432 50.2266 84.8383C50.235 84.8334 50.2427 84.827 50.248 84.8198C50.2532 84.8126 50.256 84.8038 50.2568 84.7944C50.2583 84.7842 50.2566 84.7749 50.251 84.767C50.2452 84.759 50.2375 84.7517 50.2285 84.7455C50.2196 84.7394 50.2097 84.7338 50.1992 84.7289C50.1887 84.7241 50.1787 84.7197 50.1699 84.7162C50.1479 84.7071 50.1254 84.6965 50.1025 84.685C50.0796 84.6735 50.0591 84.6593 50.042 84.642C50.0251 84.6248 50.0126 84.6039 50.0039 84.5795C49.9952 84.5549 49.9944 84.524 50.002 84.4877C50.0065 84.4671 50.0148 84.4462 50.0264 84.4252C50.0383 84.4041 50.0551 84.3843 50.0762 84.3666C50.0971 84.349 50.1227 84.3339 50.1523 84.3227C50.182 84.3117 50.2164 84.3061 50.2549 84.3061C50.2793 84.3061 50.3021 84.309 50.3232 84.3139ZM50.8672 84.3139C50.8885 84.3188 50.9079 84.3254 50.9248 84.3334C50.9415 84.3414 50.9568 84.3499 50.9697 84.3588C50.9824 84.3678 50.9927 84.376 51 84.3842L50.9092 84.4926C50.8949 84.4816 50.8763 84.4717 50.8535 84.4623C50.8306 84.4529 50.8067 84.4472 50.7822 84.4457C50.7526 84.4436 50.7305 84.4483 50.7158 84.4594C50.7012 84.4704 50.6928 84.4816 50.6904 84.4926C50.6889 84.503 50.6901 84.5123 50.6943 84.5199C50.6986 84.5275 50.7045 84.5345 50.7129 84.5405C50.7213 84.5464 50.7312 84.5518 50.7422 84.5571C50.7535 84.5623 50.7651 84.568 50.7764 84.5737L50.7881 84.5785C50.8116 84.5896 50.8352 84.6016 50.8574 84.6147C50.8797 84.6278 50.8993 84.6437 50.916 84.6615C50.9326 84.6791 50.9454 84.6997 50.9531 84.7231C50.961 84.7468 50.9615 84.7747 50.9561 84.8061C50.9518 84.8297 50.9434 84.8532 50.9307 84.8764C50.9179 84.8996 50.9005 84.9205 50.8789 84.9389C50.8571 84.9573 50.8309 84.9723 50.8008 84.9838C50.7707 84.9952 50.7356 85.0004 50.6963 85.0004C50.6404 85.0011 50.5936 84.9916 50.5557 84.9721C50.5368 84.9623 50.519 84.9512 50.5029 84.9389L50.458 84.8979L50.5488 84.7875C50.5728 84.8088 50.5976 84.8247 50.623 84.8354C50.6488 84.8461 50.6779 84.8524 50.71 84.853C50.7212 84.853 50.7319 84.8514 50.7422 84.849C50.7525 84.8467 50.7621 84.8432 50.7705 84.8383C50.779 84.8334 50.7866 84.827 50.792 84.8198C50.7972 84.8126 50.7999 84.8038 50.8008 84.7944C50.8023 84.7842 50.8005 84.7749 50.7949 84.767C50.7891 84.759 50.7814 84.7517 50.7725 84.7455C50.7636 84.7394 50.7536 84.7338 50.7432 84.7289C50.7327 84.7241 50.7227 84.7197 50.7139 84.7162C50.6918 84.7071 50.6694 84.6964 50.6465 84.685C50.6236 84.6735 50.603 84.6593 50.5859 84.642C50.569 84.6248 50.5565 84.6039 50.5479 84.5795C50.5391 84.5549 50.5383 84.524 50.5459 84.4877C50.5504 84.4671 50.5587 84.4462 50.5703 84.4252C50.5821 84.4042 50.5982 84.3842 50.6191 84.3666C50.64 84.349 50.6657 84.334 50.6953 84.3227C50.7251 84.3116 50.7601 84.3061 50.7988 84.3061C50.8233 84.3061 50.8461 84.309 50.8672 84.3139ZM48.3838 84.6655H48.4658C48.4744 84.6655 48.4827 84.665 48.4902 84.6645C48.4976 84.6639 48.5042 84.6645 48.5088 84.6645C48.5363 84.6629 48.5605 84.6546 48.5811 84.6391C48.6018 84.6236 48.6149 84.5982 48.6201 84.5629C48.6253 84.5282 48.6196 84.5021 48.6035 84.4858C48.5875 84.4696 48.5661 84.461 48.5391 84.4594C48.5296 84.4586 48.5147 84.4578 48.4961 84.4574H48.415L48.3838 84.6655ZM48.9727 84.6655H49.0537C49.0623 84.6655 49.0706 84.665 49.0781 84.6645C49.0856 84.6639 49.092 84.6645 49.0967 84.6645C49.1242 84.6629 49.1483 84.6546 49.1689 84.6391C49.1897 84.6236 49.2027 84.5982 49.208 84.5629C49.2132 84.5282 49.2075 84.5021 49.1914 84.4858C49.1754 84.4696 49.154 84.4609 49.127 84.4594C49.1175 84.4586 49.1034 84.4578 49.085 84.4574H49.0029L48.9727 84.6655ZM41.8691 80.0004C42.0173 80.0004 42.1563 80.0152 42.2822 80.0434C42.4071 80.0676 42.5224 80.1026 42.6221 80.1469C42.7218 80.1872 42.8122 80.2351 42.8877 80.2875C42.9588 80.3331 43.0179 80.3805 43.0625 80.4272L42.5654 81.0844L42.5449 81.0678C42.5091 81.0376 42.4623 81.009 42.4062 80.9819C42.3491 80.9546 42.2846 80.9289 42.2158 80.9057C42.1471 80.8825 42.0746 80.8622 42.001 80.8471C41.9274 80.832 41.8539 80.8218 41.7832 80.8178C41.6059 80.8107 41.468 80.8364 41.376 80.8969C41.2908 80.9544 41.2441 81.0207 41.2383 81.0903C41.2307 81.1444 41.2416 81.1897 41.2695 81.2319C41.2995 81.2762 41.3403 81.3176 41.3896 81.3559C41.44 81.3902 41.4995 81.4233 41.5635 81.4545L41.7705 81.5502L41.8408 81.5795C41.9803 81.64 42.1173 81.71 42.2471 81.7856C42.3827 81.8592 42.5018 81.9492 42.6016 82.0551L42.6006 82.0532C42.7012 82.1549 42.7778 82.2775 42.8262 82.4164C42.8794 82.5515 42.8943 82.7143 42.8691 82.8989C42.8498 83.0418 42.804 83.1837 42.7344 83.3217C42.6646 83.4568 42.5654 83.5791 42.4404 83.685C42.3165 83.7908 42.1625 83.8773 41.9854 83.9418C41.8071 84.0023 41.5966 84.0336 41.3584 84.0336C41.038 84.0336 40.7608 83.9802 40.5361 83.8754C40.3142 83.7718 40.1174 83.6281 39.9512 83.4496L40.4473 82.7944L40.4668 82.8119C40.6052 82.9368 40.7494 83.0335 40.8955 83.1C41.0456 83.1625 41.2135 83.1956 41.3945 83.1996C41.47 83.1996 41.5427 83.1951 41.6123 83.183C41.685 83.1679 41.7534 83.1468 41.8125 83.1196C41.8715 83.0903 41.9193 83.0534 41.958 83.0121C41.9948 82.9728 42.0167 82.9279 42.0244 82.8735C42.037 82.809 42.022 82.7558 41.9814 82.7065L41.9746 82.6977C41.936 82.6445 41.883 82.5973 41.8184 82.5571L41.8066 82.5483C41.7437 82.5049 41.6742 82.4681 41.5996 82.4389L41.4072 82.3481C41.2755 82.2916 41.1415 82.2309 41.0117 82.1674C40.8792 82.0979 40.7608 82.0141 40.6602 81.9164C40.5615 81.8177 40.4869 81.6969 40.4385 81.558C40.39 81.4179 40.3801 81.2486 40.4102 81.0571C40.4305 80.9343 40.4763 80.8096 40.5439 80.6879C40.6166 80.5609 40.7149 80.446 40.835 80.3442C40.955 80.2424 41.1021 80.1595 41.2715 80.099C41.4448 80.0345 41.6464 80.0004 41.8691 80.0004ZM45.1338 80.0004C46.1606 80.0004 46.6602 80.577 46.5361 81.3451C46.4023 82.1738 45.7299 82.6879 44.7812 82.6879H44.2861L44.0918 84.0336L43.2363 84.0287L43.8418 80.0004H45.1338ZM49.6426 84.0287H48.6475L48.1074 82.8842L48.7383 82.0483L49.6426 84.0287ZM44.4229 81.8862H44.7227C45.1975 81.886 45.527 81.6647 45.5859 81.3002C45.6421 80.9518 45.5205 80.7693 44.9531 80.7573H44.5762L44.4229 81.8862ZM48.7764 81.6967L48.4131 80.9008L49.0938 80.0004H50.0859L48.7764 81.6967ZM63 10.0004C65.209 10.0004 66.9998 11.7915 67 14.0004V72.0004L66.9951 72.2065C66.8913 74.2516 65.2512 75.8918 63.2061 75.9955L63 76.0004H27L26.7939 75.9955C24.7488 75.8918 23.1087 74.2516 23.0049 72.2065L23 72.0004V14.0004C23.0002 11.7915 24.791 10.0004 27 10.0004H63ZM27 11.5004C25.6194 11.5004 24.5002 12.6199 24.5 14.0004V72.0004C24.5 73.3811 25.6193 74.5004 27 74.5004H63C64.3807 74.5004 65.5 73.3811 65.5 72.0004V14.0004C65.4998 12.6199 64.3806 11.5004 63 11.5004H27ZM35.75 45.5004C36.1641 45.5004 36.4998 45.8364 36.5 46.2504V48.5004C36.5 48.7766 36.7239 49.0004 37 49.0004H39.25C39.6641 49.0004 39.9998 49.3364 40 49.7504C40 50.1646 39.6642 50.5004 39.25 50.5004H37C35.8954 50.5004 35 49.605 35 48.5004V46.2504C35.0002 45.8364 35.3359 45.5004 35.75 45.5004ZM54.25 45.5004C54.6641 45.5004 54.9998 45.8364 55 46.2504V48.5004C55 49.605 54.1046 50.5004 53 50.5004H50.75C50.3358 50.5004 50 50.1646 50 49.7504C50.0002 49.3364 50.3359 49.0004 50.75 49.0004H53C53.2761 49.0004 53.5 48.7766 53.5 48.5004V46.2504C53.5002 45.8364 53.8359 45.5004 54.25 45.5004ZM43 38.0004C43.4141 38.0004 43.7498 38.3364 43.75 38.7504V45.2504C43.75 45.6646 43.4142 46.0004 43 46.0004C42.5858 46.0004 42.25 45.6646 42.25 45.2504V38.7504C42.2502 38.3364 42.5859 38.0004 43 38.0004ZM51 38.0004C51.4141 38.0004 51.7498 38.3364 51.75 38.7504V45.2504C51.75 45.6646 51.4142 46.0004 51 46.0004C50.5858 46.0004 50.25 45.6646 50.25 45.2504V38.7504C50.2502 38.3364 50.5859 38.0004 51 38.0004ZM39 38.0004C39.4141 38.0004 39.7498 38.3364 39.75 38.7504V44.2504L39.7461 44.3276C39.7075 44.7055 39.3882 45.0004 39 45.0004C38.6118 45.0004 38.2925 44.7055 38.2539 44.3276L38.25 44.2504V38.7504C38.2502 38.3364 38.5859 38.0004 39 38.0004ZM47 38.0004C47.4141 38.0004 47.7498 38.3364 47.75 38.7504V44.2504L47.7461 44.3276C47.7075 44.7055 47.3882 45.0004 47 45.0004C46.6118 45.0004 46.2925 44.7055 46.2539 44.3276L46.25 44.2504V38.7504C46.2502 38.3364 46.5859 38.0004 47 38.0004ZM39.25 33.5004C39.6641 33.5004 39.9998 33.8364 40 34.2504C40 34.6646 39.6642 35.0004 39.25 35.0004H37C36.724 35.0004 36.5002 35.2245 36.5 35.5004V37.7504C36.5 38.1646 36.1642 38.5004 35.75 38.5004C35.3358 38.5004 35 38.1646 35 37.7504V35.5004C35.0002 34.3961 35.8956 33.5004 37 33.5004H39.25ZM53 33.5004C54.1044 33.5004 54.9998 34.3961 55 35.5004V37.7504C55 38.1646 54.6642 38.5004 54.25 38.5004C53.8358 38.5004 53.5 38.1646 53.5 37.7504V35.5004C53.4998 35.2245 53.276 35.0004 53 35.0004H50.75C50.3358 35.0004 50 34.6646 50 34.2504C50.0002 33.8364 50.3359 33.5004 50.75 33.5004H53ZM50.25 6.00042C50.6641 6.00042 50.9998 6.33641 51 6.75042C51 7.16463 50.6642 7.50042 50.25 7.50042H41.75C41.3358 7.50042 41 7.16463 41 6.75042C41.0002 6.33641 41.3359 6.00042 41.75 6.00042H50.25Z" fill="#B9BFC8"/>
</g>
</svg>
